<svg width="800" height="410" viewBox="0 0 800 410" fill="none" xmlns="http://www.w3.org/2000/svg">
<mask id="mask0_207_164" style="mask-type:alpha" maskUnits="userSpaceOnUse" x="0" y="0" width="800" height="410">
<rect width="800" height="410" rx="12" fill="url(#paint0_linear_207_164)"/>
</mask>
<g mask="url(#mask0_207_164)">
<rect opacity="0.6" width="800" height="410" rx="12" fill="url(#paint1_linear_207_164)"/>
<rect width="800" height="410" rx="12" fill="url(#paint2_linear_207_164)"/>
<path opacity="0.3" d="M804.447 40.0009C782.949 39.9025 762.289 48.3262 747 63.4238C731.711 78.5214 723.042 99.0601 722.894 120.534C722.894 142.139 731.486 162.86 746.78 178.137C762.074 193.414 782.818 201.996 804.447 201.996C826.076 201.996 846.819 193.414 862.114 178.137C877.408 162.86 886 142.139 886 120.534C885.852 99.0601 877.183 78.5214 861.894 63.4238C846.605 48.3262 825.945 39.9025 804.447 40.0009ZM804.447 163.068C796.045 162.973 787.859 160.397 780.92 155.665C773.98 150.933 768.597 144.256 765.448 136.475C762.299 128.693 761.524 120.155 763.222 111.936C764.92 103.716 769.015 96.1811 774.99 90.2803C780.965 84.3795 788.554 80.3762 796.802 78.7742C805.05 77.1722 813.588 78.0431 821.342 81.2774C829.095 84.5117 835.718 89.9647 840.375 96.9501C845.033 103.936 847.518 112.141 847.518 120.534C847.486 126.152 846.346 131.709 844.164 136.886C841.982 142.064 838.801 146.762 834.801 150.712C830.802 154.662 826.063 157.786 820.855 159.906C815.646 162.026 810.071 163.101 804.447 163.068Z" fill="url(#paint3_linear_207_164)"/>
<path opacity="0.4" d="M556.489 202.62C531.309 202.516 507.114 212.401 489.209 230.109C471.304 247.817 461.151 271.904 460.974 297.088C460.956 309.511 463.418 321.812 468.217 333.27C473.016 344.728 480.054 355.113 488.919 363.814C492.673 367.503 497.727 369.571 502.99 369.571C508.254 369.571 513.307 367.503 517.061 363.814C518.909 361.995 520.376 359.827 521.378 357.436C522.379 355.045 522.895 352.479 522.895 349.886C522.895 347.294 522.379 344.728 521.378 342.336C520.376 339.945 518.909 337.778 517.061 335.959C511.896 330.877 507.793 324.818 504.992 318.134C502.192 311.45 500.75 304.276 500.75 297.029C500.75 289.782 502.192 282.607 504.992 275.924C507.793 269.24 511.896 263.18 517.061 258.099C527.562 247.766 541.702 241.975 556.433 241.975C571.163 241.975 585.303 247.766 595.804 258.099C600.97 263.18 605.072 269.24 607.873 275.924C610.673 282.607 612.116 289.782 612.116 297.029C612.116 304.276 610.673 311.45 607.873 318.134C605.072 324.818 600.97 330.877 595.804 335.959C593.957 337.777 592.489 339.944 591.488 342.335C590.486 344.726 589.971 347.292 589.971 349.884C589.971 352.476 590.486 355.042 591.488 357.432C592.489 359.823 593.957 361.99 595.804 363.808C599.558 367.498 604.611 369.565 609.875 369.565C615.139 369.565 620.192 367.498 623.946 363.808C632.833 355.118 639.894 344.739 644.714 333.282C649.535 321.824 652.016 309.519 652.015 297.088C651.838 271.902 641.683 247.814 623.776 230.105C605.869 212.396 581.671 202.513 556.489 202.62Z" fill="url(#paint4_linear_207_164)"/>
</g>
<defs>
<linearGradient id="paint0_linear_207_164" x1="8.05552" y1="125" x2="763.747" y2="398.91" gradientUnits="userSpaceOnUse">
<stop stop-color="#00A5F0"/>
<stop offset="1" stop-color="#00D7D7"/>
</linearGradient>
<linearGradient id="paint1_linear_207_164" x1="266.875" y1="552.076" x2="511.049" y2="77.0498" gradientUnits="userSpaceOnUse">
<stop stop-color="#0B6EB6"/>
<stop offset="1" stop-color="#00D7D7" stop-opacity="0"/>
</linearGradient>
<linearGradient id="paint2_linear_207_164" x1="8.05552" y1="125" x2="763.747" y2="398.91" gradientUnits="userSpaceOnUse">
<stop stop-color="#00A5F0"/>
<stop offset="1" stop-color="#03E7E7"/>
</linearGradient>
<linearGradient id="paint3_linear_207_164" x1="752.931" y1="24.4395" x2="765.679" y2="161.277" gradientUnits="userSpaceOnUse">
<stop stop-color="white"/>
<stop offset="1" stop-color="white" stop-opacity="0"/>
</linearGradient>
<linearGradient id="paint4_linear_207_164" x1="626.254" y1="379.751" x2="505.534" y2="255.014" gradientUnits="userSpaceOnUse">
<stop stop-color="white"/>
<stop offset="1" stop-color="white" stop-opacity="0"/>
</linearGradient>
</defs>
</svg>
