<svg width="164" height="162" viewBox="0 0 164 162" fill="none" xmlns="http://www.w3.org/2000/svg">
<path opacity="0.3" d="M82.4471 0.000850851C60.9486 -0.0974538 40.2886 8.32616 24.9999 23.4238C9.71115 38.5214 1.04211 59.0601 0.894043 80.5343C0.894043 102.139 9.48606 122.86 24.7802 138.137C40.0744 153.414 60.8178 161.996 82.4471 161.996C104.076 161.996 124.819 153.414 140.114 138.137C155.408 122.86 164 102.139 164 80.5343C163.852 59.0601 155.183 38.5214 139.894 23.4238C124.605 8.32616 103.945 -0.0974538 82.4471 0.000850851ZM82.4471 123.068C74.0452 122.973 65.8592 120.397 58.9196 115.665C51.98 110.933 46.597 104.256 43.4479 96.4747C40.2988 88.6934 39.5243 80.1554 41.2222 71.9355C42.9201 63.7156 47.0147 56.1811 52.9899 50.2803C58.9652 44.3795 66.5542 40.3762 74.8021 38.7742C83.0501 37.1722 91.5882 38.0431 99.3417 41.2774C107.095 44.5117 113.718 49.9647 118.375 56.9501C123.033 63.9356 125.518 72.1412 125.518 80.5343C125.486 86.1521 124.346 91.7085 122.164 96.8864C119.982 102.064 116.801 106.762 112.801 110.712C108.802 114.662 104.063 117.786 98.8546 119.906C93.6463 122.026 88.0711 123.101 82.4471 123.068Z" fill="url(#paint0_linear_207_202)"/>
<defs>
<linearGradient id="paint0_linear_207_202" x1="30.9307" y1="-15.5605" x2="43.6791" y2="121.277" gradientUnits="userSpaceOnUse">
<stop stop-color="white"/>
<stop offset="1" stop-color="white" stop-opacity="0"/>
</linearGradient>
</defs>
</svg>
