<svg width="116" height="28" viewBox="0 0 116 28" fill="none" xmlns="http://www.w3.org/2000/svg">
<path fill-rule="evenodd" clip-rule="evenodd" d="M54.0649 8.79919C54.3398 8.5056 54.5558 8.1581 54.7002 7.77694C54.8446 7.39577 54.9145 6.98856 54.9059 6.57903C54.8973 6.16951 54.8103 5.76586 54.65 5.3916C54.4898 5.01735 54.2594 4.67997 53.9724 4.39914C52.1568 2.61107 49.8791 1.41144 47.4177 0.946963C44.9563 0.482487 42.418 0.773296 40.1132 1.78383C37.8084 2.79435 35.837 4.4808 34.44 6.63693C33.0431 8.79305 32.2811 11.3254 32.2474 13.9243C32.2811 16.5231 33.0431 19.0555 34.44 21.2116C35.837 23.3677 37.8084 25.0542 40.1132 26.0647C42.418 27.0752 44.9563 27.366 47.4177 26.9016C49.8791 26.4371 52.1568 25.2375 53.9724 23.4494C54.2594 23.1686 54.4898 22.8312 54.65 22.4569C54.8103 22.0827 54.8973 21.679 54.9059 21.2695C54.9145 20.86 54.8446 20.4528 54.7002 20.0716C54.5558 19.6904 54.3398 19.3429 54.0649 19.0494C53.5057 18.4535 52.7436 18.1097 51.9428 18.0921C51.142 18.0745 50.3666 18.3844 49.7836 18.955C48.4903 20.223 46.7726 20.9177 44.9946 20.892C43.2166 20.8663 41.5182 20.122 40.2594 18.8172C39.6401 18.1752 39.1486 17.4125 38.8134 16.5729C38.4781 15.7333 38.3055 14.8333 38.3055 13.9243C38.3055 13.0153 38.4781 12.1152 38.8134 11.2756C39.1486 10.436 39.6401 9.67337 40.2594 9.03138C41.5182 7.7265 43.2166 6.98229 44.9946 6.95654C46.7726 6.9308 48.4903 7.62555 49.7836 8.89349C50.3666 9.46426 51.1421 9.77415 51.943 9.75635C52.7438 9.73854 53.5059 9.39446 54.0649 8.7983V8.79919ZM70.5938 0.73184C67.208 0.715737 63.9543 2.0956 61.5464 4.56873C59.1386 7.04186 57.7733 10.4063 57.75 13.924C57.75 17.4631 59.1031 20.8572 61.5118 23.3598C63.9205 25.8623 67.1874 27.2682 70.5938 27.2682C74.0002 27.2682 77.2671 25.8623 79.6758 23.3598C82.0844 20.8572 83.4377 17.4631 83.4377 13.924C83.4143 10.4063 82.049 7.04186 79.6412 4.56873C77.2333 2.0956 73.9796 0.715737 70.5938 0.73184ZM70.5938 20.8914C69.2706 20.8758 67.9814 20.4539 66.8885 19.6787C65.7955 18.9035 64.9478 17.8098 64.4518 16.5351C63.9559 15.2605 63.8339 13.8619 64.1013 12.5154C64.3687 11.1689 65.0136 9.93468 65.9546 8.96808C66.8956 8.00148 68.0908 7.34569 69.3898 7.08327C70.6888 6.82085 72.0335 6.96352 73.2546 7.49332C74.4757 8.02313 75.5186 8.91638 76.2522 10.0607C76.9857 11.2049 77.3772 12.5491 77.3771 13.924C77.372 14.8442 77.1925 15.7544 76.8489 16.6026C76.5053 17.4508 76.0042 18.2203 75.3744 18.8673C74.7445 19.5143 73.9981 20.0261 73.1778 20.3734C72.3576 20.7207 71.4795 20.8967 70.5938 20.8914ZM100.654 0.733937C96.8232 0.717354 93.1424 2.27951 90.4186 5.07795C87.6948 7.87639 86.1502 11.6828 86.1232 15.6626C86.1204 17.6258 86.4951 19.5697 87.2251 21.3805C87.9551 23.1912 89.0259 24.8322 90.3745 26.2072C90.9457 26.7903 91.7144 27.117 92.5151 27.117C93.3159 27.117 94.0846 26.7903 94.6558 26.2072C94.9368 25.9199 95.16 25.5773 95.3124 25.1994C95.4648 24.8216 95.5432 24.416 95.5432 24.0063C95.5432 23.5966 95.4648 23.1911 95.3124 22.8132C95.16 22.4353 94.9368 22.0927 94.6558 21.8054C93.8699 21.0023 93.2458 20.0448 92.8197 18.9885C92.3937 17.9323 92.1743 16.7985 92.1743 15.6533C92.1743 14.508 92.3937 13.3742 92.8197 12.318C93.2458 11.2617 93.8699 10.3042 94.6558 9.50111C96.2532 7.86826 98.4044 6.95316 100.645 6.95316C102.886 6.95316 105.037 7.86826 106.635 9.50111C107.421 10.3042 108.045 11.2617 108.471 12.318C108.897 13.3742 109.116 14.508 109.116 15.6533C109.116 16.7985 108.897 17.9323 108.471 18.9885C108.045 20.0448 107.421 21.0023 106.635 21.8054C106.354 22.0927 106.131 22.4352 105.978 22.813C105.826 23.1908 105.747 23.5963 105.747 24.0059C105.747 24.4155 105.826 24.821 105.978 25.1988C106.131 25.5766 106.354 25.9191 106.635 26.2063C107.206 26.7894 107.975 27.1161 108.775 27.1161C109.576 27.1161 110.345 26.7894 110.916 26.2063C112.268 24.833 113.342 23.1929 114.076 21.3823C114.809 19.5716 115.186 17.627 115.186 15.6626C115.159 11.6824 113.614 7.87581 110.89 5.07732C108.166 2.27883 104.485 0.716882 100.654 0.733937ZM4.29579 5.07764C7.01981 2.27918 10.7007 0.717125 14.5315 0.733945C18.3623 0.717125 22.0433 2.27918 24.7673 5.07764C27.4913 7.87611 29.0361 11.6826 29.063 15.6626C29.0631 17.6269 28.6854 19.5713 27.9521 21.3818C27.2188 23.1923 26.1447 24.8323 24.7929 26.2055C24.2217 26.7885 23.453 27.1153 22.6523 27.1153C21.8515 27.1153 21.0828 26.7885 20.5116 26.2055C20.2306 25.9181 20.0074 25.5755 19.855 25.1977C19.7026 24.8198 19.6242 24.4142 19.6242 24.0045C19.6242 23.5949 19.7026 23.1893 19.855 22.8114C20.0074 22.4336 20.2306 22.091 20.5116 21.8036C21.2976 21.0005 21.9219 20.0429 22.348 18.9866C22.7741 17.9303 22.9936 16.7964 22.9936 15.651C22.9936 14.5057 22.7741 13.3718 22.348 12.3155C21.9219 11.2592 21.2976 10.3015 20.5116 9.49845C18.914 7.86554 16.7628 6.95042 14.5217 6.95042C12.2806 6.95042 10.1293 7.86554 8.53175 9.49845C7.74575 10.3015 7.12149 11.2592 6.69537 12.3155C6.26926 13.3718 6.0498 14.5057 6.0498 15.651C6.0498 16.7964 6.26926 17.9303 6.69537 18.9866C7.12149 20.0429 7.74575 21.0005 8.53175 21.8036C8.8128 22.091 9.03601 22.4336 9.18837 22.8114C9.34073 23.1893 9.41919 23.5949 9.41919 24.0045C9.41919 24.4142 9.34073 24.8198 9.18837 25.1977C9.03601 25.5755 8.8128 25.9181 8.53175 26.2055C7.96058 26.7885 7.19186 27.1153 6.39111 27.1153C5.59036 27.1153 4.82163 26.7885 4.25047 26.2055C2.90219 24.8306 1.83173 23.1898 1.10185 21.3794C0.371964 19.569 -0.00263561 17.6254 1.39577e-05 15.6626C0.0269543 11.6826 1.57178 7.87611 4.29579 5.07764ZM48.1175 13.9081C48.1266 15.6257 46.7785 17.0259 45.1064 17.0355C43.4343 17.0452 42.0713 15.6605 42.0622 13.9429C42.053 12.2253 43.4011 10.825 45.0733 10.8154C46.7454 10.8058 48.1084 12.1905 48.1175 13.9081Z" fill="white"/>
</svg>
